<svg data-v-1084b650="" xmlns="http://www.w3.org/2000/svg" viewBox="0 0 300 300"><!----> <!----> <rect data-v-1084b650="" fill="#f2f2f2" x="0" y="0" width="300px" height="300px" class="logo-background-square"></rect> <linearGradient data-v-1084b650="" gradientTransform="rotate(25)" id="ccfbaef1-2b0e-3889-0c57-9b7200fe82ea" x1="0%" y1="0%" x2="100%" y2="0%"><stop data-v-1084b650="" offset="0%" style="stop-color: rgb(72, 41, 54); stop-opacity: 1;"></stop> <stop data-v-1084b650="" offset="100%" style="stop-color: rgb(45, 12, 19); stop-opacity: 1;"></stop></linearGradient> <g data-v-1084b650="" id="19d8cca3-03da-a58f-f8b5-2d515d983b00" fill="url(#ccfbaef1-2b0e-3889-0c57-9b7200fe82ea)" transform="matrix(22.30000000000003,0,0,22.30000000000003,43.51749835908399,-22.824994921684493)"><path d="M4.56 7.38C2.06 7.49-0.22 7.83-0.22 10.39C-0.22 11.83 0.57 12.57 1.71 12.57C2.49 12.57 3.21 12.05 3.21 10.82L3.21 3.42L4.37 3.42L4.37 3.19L0.73 3.19L0.73 3.42L1.75 3.42L1.75 11.30C1.75 11.58 1.67 12.10 1.23 12.10C0.46 12.10 0.06 11.38 0.06 10.30C0.06 8.06 2.11 7.76 4.59 7.63C7.17 7.50 9.77 7.67 9.77 4.79C9.77 3.58 9.25 2.93 8.33 2.93C7.69 2.93 7.06 3.36 7.06 4.52L7.06 12.07L6.03 12.07L6.03 12.29L9.67 12.29L9.67 12.07L8.51 12.07L8.51 4.27C8.51 3.65 8.71 3.53 8.97 3.53C9.28 3.53 9.49 4.00 9.49 4.76C9.49 7.43 7.10 7.27 4.56 7.38Z"></path></g> <!----></svg>