<?xml version="1.0" standalone="no"?>
<!DOCTYPE svg PUBLIC "-//W3C//DTD SVG 20010904//EN"
 "http://www.w3.org/TR/2001/REC-SVG-20010904/DTD/svg10.dtd">
<svg version="1.0" xmlns="http://www.w3.org/2000/svg"
 width="700.000000pt" height="700.000000pt" viewBox="0 0 700.000000 700.000000"
 preserveAspectRatio="xMidYMid meet">
<metadata>
Created by potrace 1.11, written by Peter Selinger 2001-2013
</metadata>
<g transform="translate(0.000000,700.000000) scale(0.100000,-0.100000)"
fill="#000000" stroke="none">
<path d="M5225 5996 c-230 -44 -394 -192 -476 -430 -56 -162 -59 -208 -59
-1037 l0 -757 -32 -6 c-120 -22 -482 -44 -1063 -66 -379 -14 -777 -40 -872
-56 l-33 -5 0 1056 0 1055 300 0 300 0 0 60 0 60 -945 0 -945 0 0 -60 0 -60
265 0 265 0 0 -1129 0 -1129 -52 -18 c-108 -35 -266 -106 -356 -160 -394 -235
-593 -590 -618 -1104 -7 -131 6 -300 32 -424 89 -429 354 -699 764 -777 107
-20 321 -15 412 9 137 37 222 86 324 187 81 80 97 103 142 195 62 130 89 235
102 410 5 75 10 485 10 918 0 738 1 782 18 782 9 0 55 4 102 10 137 15 519 39
890 55 426 18 643 32 829 50 79 8 148 15 152 15 5 0 9 -523 9 -1195 l0 -1195
-270 0 -270 0 0 -55 0 -55 950 0 950 0 0 55 0 55 -305 0 -305 0 0 1294 0 1293
78 45 c268 157 430 365 517 665 43 149 59 279 59 488 0 203 -11 297 -51 435
-80 277 -254 459 -493 514 -96 22 -243 28 -325 12z m536 -322 c36 -18 84 -80
114 -147 46 -100 66 -215 72 -417 10 -345 -46 -593 -180 -803 -51 -79 -169
-201 -252 -259 l-70 -49 -3 643 c-3 781 2 871 65 970 47 76 168 105 254 62z
m-3834 -3231 c-3 -835 -5 -913 -21 -968 -51 -170 -123 -234 -261 -235 -315 -1
-529 256 -585 703 -18 139 -8 434 18 552 73 330 252 563 560 731 75 41 261
122 285 123 4 1 6 -407 4 -906z"/>
</g>
</svg>
